:SAMPLES-PER-SECOND 30
:FULLY-SPECIFIED
:DEGREES
416
root  -60.3075 24.2277 -12.4974 -129.05 -59.867 139.493
RightUpLeg  -66.1946 -18.6984 -7.16942
RightLeg  112.074 2.56887 -7.16489
RightFoot  -18.5461 0.533202 3.87072
RightToes  -47.5155 -0.281128 -0.353523
Spine  17.2893 1.13416 -3.17434
Spine1  31.0563 6.22766 -8.26462
HEad  -59.5834 -26.9977 7.58244
LeftShoulder1  -1.94126e-019 -3.10601e-018 -2.51263e-017
LeftArm  -25.5289 -10.1578 -61.8549
LeftForeArm  23.9454 -25.7758 -4.15083
LeftHand  -0.674868 -1.18305 12.0633
RightShoulder  -4.96962e-017 0 -2.36833e-017
RightArm  -27.2992 11.8081 58.9102
RightForeArm  41.9705 37.9051 5.98891
RightHand  -0.465404 -1.15423 -12.6851
LeftUpLeg  -73.9124 -3.2416 -9.50617
LeftLeg  80.9715 0.065406 0.252526
LeftFoot  -2.60866 0.0169485 0.905805
LeftToes  -37.6746 1.31378e-006 1.14341e-007
417
root  -60.7586 24.5284 -13.33 -131.145 -61.5286 143.029
RightUpLeg  -69.3654 -19.735 -6.50067
RightLeg  115.142 -0.226052 1.04278
RightFoot  -3.13777 0.0146237 1.19373
RightToes  -59.3136 -0.388078 -0.396411
Spine  16.8489 1.01364 -3.19205
Spine1  30.5592 5.27775 -7.45609
HEad  -59.777 -27.3149 10.3265
LeftShoulder1  -1.94126e-019 -3.10601e-018 -2.51263e-017
LeftArm  -24.4857 -10.4521 -62.8502
LeftForeArm  24.5856 -25.619 -4.0839
LeftHand  -0.711944 -1.09566 12.8792
RightShoulder  -4.96962e-017 0 -2.36833e-017
RightArm  -24.1442 10.0507 61.3975
RightForeArm  48.2573 35.5502 5.07113
RightHand  -0.519813 0.779558 -9.88486
LeftUpLeg  -73.4098 -2.28242 -6.57355
LeftLeg  81.0472 -0.0234654 -0.142369
LeftFoot  -3.79219 0.0174539 0.688694
LeftToes  -39.458 1.31378e-006 1.14341e-007
418
root  -61.0361 24.9346 -14.1908 -133.165 -62.7108 146.715
RightUpLeg  -72.4759 -20.5167 -6.77571
RightLeg  115.806 -3.76426 9.62339
RightFoot  -0.710767 -9.55793e-005 0.948963
RightToes  -35.993 -0.187291 -0.291387
Spine  16.3129 0.78069 -2.98359
Spine1  29.8458 4.1457 -6.46356
HEad  -60.2504 -27.0204 11.441
LeftShoulder1  -1.94126e-019 -3.10601e-018 -2.51263e-017
LeftArm  -23.387 -9.98994 -64.1793
LeftForeArm  25.0912 -26.2974 -4.20048
LeftHand  -0.65275 -0.900931 12.1746
RightShoulder  -4.96962e-017 0 -2.36833e-017
RightArm  -20.784 8.71823 62.8816
RightForeArm  52.4638 33.3016 4.34972
RightHand  -0.461263 2.74264 -6.79843
LeftUpLeg  -72.7412 -1.58551 -3.40024
LeftLeg  80.0336 -0.0697203 -0.321944
LeftFoot  -4.51837 0.0121356 0.4691
LeftToes  -41.1681 1.31378e-006 1.14341e-007
419
root  -61.3128 25.4071 -15.0607 -135.314 -62.274 149.94
RightUpLeg  -74.5943 -20.3473 -8.89
RightLeg  112.848 -2.327 7.16409
RightFoot  -3.87181 -0.00269607 0.499831
RightToes  -40.0808 -0.219129 -0.315578
Spine  15.8778 0.735685 -3.13819
Spine1  29.2353 3.4761 -6.16431
HEad  -60.6795 -26.4431 11.9076
LeftShoulder1  -1.94126e-019 -3.10601e-018 -2.51263e-017
LeftArm  -22.9343 -9.09306 -65.3454
LeftForeArm  26.4637 -26.9066 -4.25738
LeftHand  -0.700515 -1.85589 11.4013
RightShoulder  -4.96962e-017 0 -2.36833e-017
RightArm  -18.2349 7.56014 64.3183
RightForeArm  53.3597 31.2715 3.86538
RightHand  -0.32587 3.04854 -4.71264
LeftUpLeg  -71.0323 -0.86277 -1.01702
LeftLeg  78.4289 0.176542 0.616358
LeftFoot  -4.86779 0.000273567 0.167936
LeftToes  -43.1451 1.31378e-006 1.14341e-007
420
root  -61.4324 25.8774 -15.9911 -138.245 -61.4242 154.82
RightUpLeg  -77.0701 -19.2521 -10.1033
RightLeg  105.16 0.470756 -1.57134
RightFoot  -8.66593 0.045753 1.18598
RightToes  -30.9599 -0.150586 -0.258582
Spine  15.0181 0.982565 -2.99358
Spine1  27.8294 3.40433 -5.52851
HEad  -61.0703 -25.6691 12.0512
LeftShoulder1  -1.94126e-019 -3.10601e-018 -2.51263e-017
LeftArm  -22.3162 -7.66162 -66.4846
LeftForeArm  26.7211 -27.3066 -4.32953
LeftHand  -0.713053 -1.93237 11.4857
RightShoulder  -4.96962e-017 0 -2.36833e-017
RightArm  -16.4919 6.23808 65.467
RightForeArm  52.7312 29.1943 3.45661
RightHand  -0.350686 2.59677 -5.30661
LeftUpLeg  -70.1688 0.589323 1.76032
LeftLeg  76.8247 0.825605 2.69465
LeftFoot  -4.48659 -0.0151583 -0.225441
LeftToes  -44.3767 1.31378e-006 1.14341e-007
421
root  -61.4878 26.3137 -16.9696 -140.864 -60.0163 159.474
RightUpLeg  -78.1268 -17.8279 -10.9354
RightLeg  92.296 -0.130624 -10.1794
RightFoot  -12.9138 0.287179 3.15388
RightToes  -17.5546 -0.0682503 -0.156875
Spine  13.9326 1.36675 -2.9477
Spine1  25.9791 3.69983 -5.13281
HEad  -61.3499 -24.9404 12.2592
LeftShoulder1  -1.94126e-019 -3.10601e-018 -2.51263e-017
LeftArm  -21.2991 -5.96802 -67.0588
LeftForeArm  26.42 -27.3674 -4.35872
LeftHand  -0.700933 -1.44294 12.0652
RightShoulder  -4.96962e-017 0 -2.36833e-017
RightArm  -15.4429 4.21699 66.6289
RightForeArm  51.2408 28.0629 3.29017
RightHand  -0.408943 1.7652 -6.80159
LeftUpLeg  -68.9546 2.37485 4.70256
LeftLeg  74.9163 1.30505 3.81016
LeftFoot  -4.16806 -0.0244076 -0.509201
LeftToes  -46.514 1.31378e-006 1.14341e-007
